<?xml version="1.0" encoding="utf-8"?>
<!-- Generator: Adobe Illustrator 20.0.0, SVG Export Plug-In . SVG Version: 6.00 Build 0)  -->
<svg version="1.1" id="圖層_1" xmlns="http://www.w3.org/2000/svg" xmlns:xlink="http://www.w3.org/1999/xlink" x="0px" y="0px"
	 viewBox="0 0 109.2 50.1" style="enable-background:new 0 0 109.2 50.1;" xml:space="preserve">
<style type="text/css">
	.st0{clip-path:url(#SVGID_2_);fill:#CB333B;}
</style>
<g>
	<defs>
		<rect id="SVGID_1_" y="0" width="109.2" height="50.1"/>
	</defs>
	<clipPath id="SVGID_2_">
		<use xlink:href="#SVGID_1_"  style="overflow:visible;"/>
	</clipPath>
	<path class="st0" d="M55,41.3c0.1-0.2,0.1-0.3,0.1-0.5c0-0.2-0.1-0.4-0.3-0.6c-0.2-0.1-0.5-0.2-0.9-0.1l-1.6,0.2l0.2,1.7l1.5-0.2
		c0.3,0,0.6-0.1,0.7-0.2C54.8,41.6,54.9,41.5,55,41.3"/>
	<path class="st0" d="M46,41.7l-0.5,1.5l1.8,0l-0.6-1.4c-0.2-0.4-0.3-0.8-0.4-1.1C46.2,41.1,46.1,41.4,46,41.7"/>
	<path class="st0" d="M91.6,22.8c2.4,0.8,4.5,3.4,6.5,7.9c0.9,2.3,2.4,3.1,4.3,2.5c0,0,0.1-0.1,0.2-0.1c0.8-0.3,1.4-1.1,1.8-2.1
		c0.3-1,0.3-2-0.1-3c-0.9-2.3-3.3-4.1-7.3-5.3c-1.5-0.5-3.3-0.8-5.5-0.9v-3.7h16.8c0.1,0,0.1,0,0.2-0.1c0.1-0.1,0.2-0.3,0.2-0.5
		c0-0.2-0.1-0.4-0.4-0.7c-1.1-0.9-2.6-2.2-4.5-3.8c-0.3-0.2-0.5-0.4-0.7-0.4c-0.3,0-1.5,1.4-3.7,4.3h-8v-6.5h14.1c0,0,0.1,0,0.2-0.1
		c0.1-0.1,0.2-0.3,0.2-0.5c0-0.2-1.6-1.5-4.8-4c-0.3-0.2-0.5-0.3-0.8-0.3c-0.3,0-1.4,1.3-3.3,3.8h-5.6V5.7c0-0.3,0.2-0.7,0.8-1
		c1-0.5,1.2-1.1,0.4-1.7c-0.2-0.2-0.8-0.3-1.6-0.3l-5.1-0.2c-0.4,0-0.7,0-0.8,0.2c-0.1,0.1-0.2,0.3-0.1,0.6v13.8H72.3
		c-0.3,0-0.5,0.2-0.5,0.5c0,0.4,0.2,0.6,0.5,0.6h12.8v17.1C77.7,33.6,69,33.2,60,35.4c-0.7,0.2-1.4,0.3-2.2,0.5
		c0.5-0.7,0.8-1.7,0.8-2.8v-5.4h15.5c0,0,0.1,0,0.2-0.1c0.1-0.1,0.2-0.3,0.2-0.5c0-0.2-0.1-0.4-0.3-0.6c-1.1-0.9-2.5-2.1-4.3-3.6
		c-0.3-0.2-0.5-0.3-0.7-0.3c-0.3,0-1.4,1.3-3.4,4h-7.1v-0.6c0-0.5,0.3-0.8,0.9-1c0.6-0.2,0.9-0.5,0.9-1.1c0-0.2,0-0.3-0.2-0.4
		c5.3-1.5,8-2.2,8.2-2.2c0.2,0,0.4,0,0.8,0c0.8,0,1.3-0.2,1.6-0.7c0.2-0.3,0-0.7-0.6-1l-3.7-2.2c0.5-0.1,0.8-0.2,1-0.4
		c0.3-0.2,0.4-0.5,0.4-0.9v-4c0-0.6,0.2-1,0.6-1.2c1.3-0.6,1.3-1.2,0-2l-4-2.4c-0.3-0.2-0.6-0.3-0.7-0.3c-0.2,0-0.4,0.1-0.6,0.3
		l-2,2h-12l-5.7-1.8c-0.3-0.1-0.4-0.1-0.5,0C43,7,42.9,7.2,42.9,7.4v8.7c0,0.3,0,0.6,0.1,0.9c0.1,0.2,0.2,0.5,0.5,0.7
		c0.3,0.2,1.1,0.2,2.5,0.2c1.2,0,2-0.1,2.3-0.2c0.3-0.1,0.5-0.2,0.7-0.4c0.2-0.2,0.3-0.5,0.3-1.1V16h12.3v0.2c0,0.6,0.1,0.9,0.4,1.2
		c0.2,0.2,0.7,0.2,1.4,0.3l-1.9,1.5H41.2c-0.3,0-0.5,0.1-0.5,0.5c0,0.3,0.2,0.5,0.5,0.6h20c-1.3,1-2.5,1.9-3.5,2.6l-4.4-0.4
		c-0.3,0-0.6,0.1-0.6,0.2c-0.1,0.2-0.1,0.4-0.1,0.6v3.4H37.3c-0.3,0-0.5,0.2-0.5,0.5c0,0.4,0.2,0.6,0.5,0.6h15.1v1.8
		c0,0.4-0.1,0.7-0.4,1c-0.3,0.3-2.4,0.4-6.3,0.2c-0.3,0-0.4,0-0.5,0.2c0,0.2,0.1,0.4,0.3,0.4c3,1.3,4.6,3.2,5,5.6
		c-13,1.2-25.2-1.5-30.7-3v-8.8c0-0.3,0.1-0.5,0.4-0.7c0.5-0.2,0.7-0.6,0.7-1.1c0-0.5-0.3-0.9-0.9-1.2l-3.3-1.7
		c-0.3-0.2-0.5-0.2-0.6-0.2c-0.1,0-0.2,0.1-0.4,0.3l-1.6,1.8h-2.3c-1.2-1.7-2.5-3.1-3.9-4c-0.2-0.2-0.3-0.3-0.3-0.4
		c0-0.2,0.1-0.3,0.2-0.5c2.5-3.5,4.2-6.3,5.3-8.5c0.2-0.3,0.4-0.6,0.6-0.7c0.2-0.1,0.4-0.3,0.6-0.5c0,0.1,0.1,0.2,0.1,0.4
		c0.1,0.9,0.4,1.5,0.8,2c0.5,0.6,1.2,0.8,2,0.7c0.7,0,1.3-0.4,1.9-1c0.3-0.4,0.6-0.9,0.7-1.6H22c-0.7,2.9-1.8,5.4-3.2,7.6
		c0-0.6-0.2-1.2-0.5-1.6c-0.4-0.7-1.2-1.2-2.4-1.6c-1.1-0.4-2.3-0.6-3.5-0.5c-0.2,0-0.4,0.1-0.4,0.2c0,0.1,0,0.2,0.1,0.3
		c0.7,0.7,1.1,2,1.3,3.9c0.1,0.9,0.4,1.5,0.8,2c0.5,0.5,1.1,0.8,1.9,0.7c0.7,0,1.3-0.3,1.9-0.9c0.3-0.3,0.5-0.8,0.7-1.4
		c0.4-0.3,0.9-0.6,1.3-0.9h1.4c-0.1,0.1-0.2,0.2-0.2,0.4v15.1c-0.1,0.5,0.1,0.9,0.5,1.3c0.2,0.2,0.9,0.2,2.1,0.2
		c1,0,1.6-0.1,1.9-0.2c0.2,0,0.4-0.1,0.6-0.4c0.2-0.2,0.2-0.5,0.2-0.9v-6.4h3.1v2c0,0.4-0.1,0.7-0.2,0.8c-0.1,0-0.8,0-2.1-0.1
		c-0.2,0-0.3,0-0.4,0.2c0,0.2,0,0.3,0.2,0.4c1.5,0.9,2.1,2.5,1.7,4.5c0,0.3,0,0.4,0.1,0.5c0.1,0.1,0.3,0.2,0.7,0.2
		c2,0,3.4-0.3,4.2-0.9c0.9-0.6,1.3-1.6,1.3-3v-8.3c0-0.3,0.2-0.6,0.5-0.8c0.4-0.3,0.6-0.6,0.6-1c0-0.4-0.3-0.7-0.7-0.9l-3.9-2.2
		c-0.3-0.2-0.5-0.3-0.6-0.3c-0.2,0-0.3,0.1-0.5,0.3l-1.3,0.9h-2.8L22,16.3h14.3c0,0,0.1,0,0.1-0.1c0-0.1,0-0.3,0.1-0.5
		c0-0.1-1-0.8-2.9-2.2c-0.2-0.1-0.3-0.2-0.5-0.2c-0.1,0-0.2,0.1-0.3,0.2c-0.3,0.5-0.7,1-1,1.6h-0.6v-3.3h4.1c0,0,0,0,0.1-0.1
		c0-0.1,0.1-0.3,0.1-0.5c0-0.1-0.9-0.8-2.8-2c-0.2-0.1-0.3-0.2-0.5-0.2c-0.1,0-0.2,0.1-0.2,0.2c-0.3,0.4-0.5,0.9-0.9,1.4h-5.5
		c0.5-0.7,1-1.5,1.5-2.4h9.1c0,0,0.1,0,0.1-0.1c0.1-0.1,0.1-0.3,0.1-0.5c0-0.1-1.2-1-3.5-2.8C33,5,32.8,4.9,32.6,4.9
		c-0.2,0-0.9,0.8-1.9,2.4h-2.8C28.5,6,29.1,5.2,29.5,5c0.3-0.2,0.5-0.4,0.6-0.7c0-0.3-0.4-0.6-1.3-0.7l-5.2-0.7
		c-0.3,0-0.5,0-0.6,0.1c-0.1,0.1-0.1,0.3-0.2,0.6c0,1.1-0.2,2.3-0.5,3.8h-2.4c-0.2-1.4-1.2-2.5-3-3.3c-1.2-0.5-2.5-0.7-3.7-0.7
		c-0.2,0-0.4,0.1-0.4,0.2c0,0.1,0,0.2,0.1,0.3c0.6,0.6,1.1,1.5,1.4,2.6c-0.1-0.2-0.2-0.3-0.4-0.4L11,3.7c-0.3-0.3-0.5-0.4-0.7-0.5
		c-0.2,0-0.4,0.1-0.6,0.4L8,5.8H6.5L0.6,3.3c-0.2-0.1-0.3-0.1-0.4,0C0.1,3.4,0,3.6,0,3.8v35.1c0,0.9,0.2,1.5,0.5,1.8
		C0.8,40.9,1.6,41,3,41c1.4-0.1,2.3-0.2,2.6-0.5C5.8,40.3,6,39.8,6,38.9V28.2c0.8,0.6,1.2,2.4,1.2,5.4c-0.1,0.6,0.2,0.9,0.9,0.9
		c1.4-0.1,2.6-0.5,3.4-1.2c0.9-0.7,1.5-1.7,1.8-2.8c0.6-2.2,0.3-4.5-0.9-6.9h2v9.7c0,0.3-0.2,0.6-0.4,0.7c-0.4,0.3-1.2,0.4-2.5,0.5
		c-0.5,0.1-0.6,0.4-0.4,0.9c1.3,3.6,2.2,5.6,2.6,5.9c0.2,0.2,0.4,0.1,0.6-0.1c0.1-0.2,0.2-0.4,0.3-0.7c0-0.2,1.1-1.7,3.2-4.5
		c9.4,20.6,37.6,12.7,37.6,12.7s29.2-10,50-5c-2.4-1.7-7.4-4.5-13.9-6.7V22.8z M61.6,14.9H49.3v-5h12.3V14.9z M26.6,18.9h3.1v2.1
		h-3.1V18.9z M26.6,22h3.1v2.4h-3.1V22z M25,11.9h0.7v3.3h-4.2C23.3,13.8,24.4,12.7,25,11.9 M8.1,26.6C8,26.7,7.9,26.9,7.8,27
		c-0.2,0.2-0.8,0.4-1.9,0.4V6.9h2.2c-0.3,4.3-0.9,7.8-1.7,10.6c-0.1,0.4-0.1,0.8,0.2,1.1C8.6,21.1,9.1,23.8,8.1,26.6 M30,40.6
		c0.1,0.1,0.4,0.3,1,0.5c0.5,0.2,0.9,0.4,1.1,0.5c0.3,0.2,0.5,0.4,0.6,0.6c0.1,0.2,0.1,0.5,0.1,0.8c0,0.3-0.2,0.5-0.4,0.7
		c-0.2,0.2-0.5,0.4-0.8,0.5c-0.3,0.1-0.7,0.1-1,0c-0.5-0.1-0.8-0.2-1.1-0.4c-0.3-0.2-0.5-0.4-0.6-0.7c-0.1-0.3-0.2-0.6-0.1-1
		l0.6,0.1c0,0.3,0,0.5,0.1,0.7c0.1,0.2,0.2,0.3,0.4,0.5c0.2,0.1,0.5,0.2,0.8,0.3c0.3,0,0.5,0,0.7,0c0.2,0,0.4-0.1,0.5-0.2
		c0.1-0.1,0.2-0.3,0.2-0.4c0-0.2,0-0.3-0.1-0.5c-0.1-0.1-0.2-0.3-0.4-0.4c-0.1-0.1-0.4-0.2-0.9-0.4c-0.5-0.2-0.8-0.4-0.9-0.5
		c-0.2-0.2-0.4-0.4-0.5-0.6c-0.1-0.2-0.1-0.4-0.1-0.7c0-0.3,0.2-0.5,0.3-0.7c0.2-0.2,0.4-0.3,0.7-0.4c0.3-0.1,0.6-0.1,1,0
		c0.4,0.1,0.7,0.2,1,0.3c0.3,0.2,0.5,0.4,0.6,0.7c0.1,0.3,0.2,0.6,0.1,0.9l-0.7-0.1c0-0.3-0.1-0.6-0.2-0.8c-0.2-0.2-0.5-0.3-0.9-0.4
		c-0.4-0.1-0.7,0-0.9,0.1c-0.2,0.1-0.3,0.3-0.4,0.5C29.9,40.3,29.9,40.5,30,40.6 M40.4,45.4l-0.7-0.1l0.2-2.5l-2.7-0.2L37,45.1
		L36.3,45l0.4-5.2l0.7,0.1L37.3,42l2.7,0.2l0.2-2.1l0.7,0.1L40.4,45.4z M48.1,45.4l-0.6-1.6l-2.2,0l-0.5,1.6l-0.7,0l1.9-5.3l0.7,0
		l2.2,5.2L48.1,45.4z M55.8,44.6l-0.8-1c-0.2-0.3-0.4-0.5-0.6-0.7c-0.2-0.1-0.3-0.3-0.4-0.3c-0.1-0.1-0.2-0.1-0.3-0.1
		c-0.1,0-0.2,0-0.4,0l-0.8,0.1l0.3,2.3L52.1,45l-0.7-5.2l2.3-0.3c0.5-0.1,0.8-0.1,1.1,0c0.3,0.1,0.5,0.2,0.6,0.4
		c0.2,0.2,0.3,0.5,0.3,0.8c0,0.4,0,0.7-0.2,1c-0.2,0.3-0.6,0.5-1,0.6c0.2,0.1,0.3,0.1,0.4,0.2c0.2,0.2,0.4,0.4,0.7,0.6l1.1,1.3
		L55.8,44.6z M60.3,43.9l-0.7-5.2l0.7-0.1l0.7,5.2L60.3,43.9z M68.5,42.6l-3.3-3.7l0.5,4.1l-0.7,0.1l-0.7-5.2l0.7-0.1l3.3,3.7
		l-0.5-4.1l0.7-0.1l0.7,5.2L68.5,42.6z M75.9,41.2c-0.3,0.2-0.7,0.3-1.1,0.4c-0.5,0.1-1,0-1.4-0.1c-0.4-0.2-0.8-0.4-1.1-0.8
		c-0.3-0.4-0.4-0.8-0.5-1.3c-0.1-0.5,0-1,0.1-1.5c0.2-0.5,0.4-0.8,0.8-1.1c0.4-0.3,0.8-0.4,1.3-0.5c0.4-0.1,0.7,0,1.1,0
		c0.3,0.1,0.6,0.2,0.8,0.4c0.2,0.2,0.4,0.5,0.5,0.8l-0.6,0.3c-0.1-0.2-0.2-0.4-0.4-0.6c-0.1-0.1-0.3-0.2-0.5-0.3
		c-0.2-0.1-0.5-0.1-0.7,0c-0.3,0-0.6,0.1-0.8,0.3c-0.2,0.1-0.4,0.3-0.5,0.4c-0.1,0.2-0.2,0.4-0.3,0.6c-0.1,0.3-0.1,0.7-0.1,1.1
		c0.1,0.5,0.2,0.8,0.4,1.1c0.2,0.3,0.5,0.5,0.8,0.6c0.3,0.1,0.7,0.1,1,0.1c0.3,0,0.6-0.1,0.8-0.3c0.3-0.2,0.5-0.3,0.6-0.5l-0.1-1
		l-1.5,0.2l-0.1-0.6l2.2-0.3l0.3,1.9C76.6,40.8,76.2,41,75.9,41.2"/>
	<path class="st0" d="M37.6,6.1h35.8c0.1,0,0.1,0,0.2-0.1c0.1-0.1,0.2-0.3,0.2-0.5c0-0.2-0.1-0.4-0.4-0.7c-1.1-0.9-2.6-2.2-4.5-3.8
		c-0.3-0.2-0.5-0.4-0.7-0.4c-0.3,0-1.5,1.4-3.7,4.3h-5.8V3.2c0-0.3,0.3-0.7,0.8-1c1-0.5,1.2-1.1,0.4-1.7c-0.2-0.2-0.8-0.3-1.6-0.3
		L53.3,0c-0.4,0-0.7,0-0.8,0.2c-0.1,0.1-0.1,0.3-0.1,0.6V5H37.6c-0.3,0-0.5,0.2-0.5,0.5C37.1,5.9,37.3,6.1,37.6,6.1"/>
	<path class="st0" d="M106.1,35.3c-1.7,0-3.1,1.3-3.1,3.1c0,1.8,1.4,3.1,3.1,3.1c1.7,0,3.1-1.3,3.1-3.1
		C109.2,36.6,107.8,35.3,106.1,35.3 M106.1,40.9c-1.4,0-2.5-1.1-2.5-2.6c0-1.4,1.1-2.5,2.5-2.5c1.4,0,2.5,1.1,2.5,2.5
		C108.6,39.8,107.5,40.9,106.1,40.9"/>
	<path class="st0" d="M107.5,37.6c0-0.7-0.4-1-1.2-1h-1.3v3.5h0.5v-1.5h0.6l0.9,1.5h0.6l-1-1.6C107.1,38.5,107.5,38.2,107.5,37.6
		 M105.4,38.1V37h0.7c0.4,0,0.8,0.1,0.8,0.5c0,0.5-0.4,0.6-0.9,0.6H105.4z"/>
</g>
</svg>
