<?xml version="1.0" encoding="utf-8"?>
<!-- Generator: Adobe Illustrator 20.0.0, SVG Export Plug-In . SVG Version: 6.00 Build 0)  -->
<svg version="1.1" id="圖層_1" xmlns="http://www.w3.org/2000/svg" xmlns:xlink="http://www.w3.org/1999/xlink" x="0px" y="0px"
	 viewBox="0 0 80 80" style="enable-background:new 0 0 80 80;" xml:space="preserve">
<style type="text/css">
	.st0{fill:#FFFFFF;}
</style>
<title>x mark-unfilled</title>
<desc>Created with Sketch.</desc>
<g>
	<path class="st0" d="M52.5,27.7c-0.7-0.7-1.8-0.7-2.5,0l-10,10l-10-10c-0.7-0.7-1.8-0.7-2.5,0c-0.7,0.7-0.7,1.8,0,2.5l10,10l-10,10
		c-0.7,0.7-0.7,1.8,0,2.5c0.7,0.7,1.8,0.7,2.5,0l10-10l10,10c0.7,0.7,1.8,0.7,2.5,0c0.7-0.7,0.7-1.8,0-2.5l-10-10l10-10
		C53.2,29.5,53.2,28.4,52.5,27.7z"/>
	<path class="st0" d="M40,0C26.2,0,14,7,6.8,17.6C2.5,24,0,31.7,0,40c0,22.1,17.9,40,40,40s40-17.9,40-40S62.1,0,40,0z M40,76.4
		C19.9,76.4,3.6,60.1,3.6,40C3.6,19.9,19.9,3.6,40,3.6S76.4,19.9,76.4,40C76.4,60.1,60.1,76.4,40,76.4z"/>
</g>
</svg>
