<?xml version="1.0" encoding="utf-8"?>
<!-- Generator: Adobe Illustrator 20.0.0, SVG Export Plug-In . SVG Version: 6.00 Build 0)  -->
<svg version="1.1" id="圖層_1" xmlns="http://www.w3.org/2000/svg" xmlns:xlink="http://www.w3.org/1999/xlink" x="0px" y="0px"
	 viewBox="0 0 23.7 22.5" style="enable-background:new 0 0 23.7 22.5;" xml:space="preserve">
<style type="text/css">
	.st0{clip-path:url(#SVGID_2_);fill:#FFFFFF;}
</style>
<g>
	<defs>
		<rect id="SVGID_1_" width="23.7" height="22.5"/>
	</defs>
	<clipPath id="SVGID_2_">
		<use xlink:href="#SVGID_1_"  style="overflow:visible;"/>
	</clipPath>
	<path class="st0" d="M22.8,6c-0.6-1.2-1.5-2.3-2.6-3.2c-2-1.6-4.4-2.5-6.9-2.8C12.9,0,12.4,0,11.9,0c-0.6,0-1.3,0-1.9,0.1
		C9.4,0.2,8.8,0.3,8.2,0.5C6.6,0.9,5.1,1.6,3.7,2.6C2.6,3.5,1.6,4.5,1,5.8c-0.6,1-0.9,2.1-1,3.3c0,0.5,0,1,0,1.5
		c0.1,0.7,0.3,1.4,0.5,2.1c0.6,1.5,1.6,2.8,2.9,3.8c1.2,1,2.6,1.7,4.2,2.1c0.7,0.2,1.4,0.4,2.1,0.5c0.3,0,0.6,0.1,0.9,0.3
		c0.2,0.1,0.3,0.3,0.3,0.5c0,0.2,0,0.4,0,0.7c0,0.4-0.1,0.8-0.2,1.2c0,0.2,0,0.3,0,0.5c0,0.2,0.2,0.3,0.4,0.3c0.1,0,0.3,0,0.4-0.1
		c0.4-0.1,0.7-0.3,1.1-0.5c1.5-0.8,2.9-1.8,4.3-2.8c1.2-0.9,2.4-1.8,3.4-2.8c0.8-0.8,1.5-1.6,2.1-2.6c0.8-1.3,1.2-2.7,1.2-4.2
		c0,0,0,0,0,0c0-0.4-0.1-0.8-0.1-1.2C23.4,7.6,23.2,6.8,22.8,6 M7.6,12.4c0,0.2-0.1,0.3-0.2,0.3c-1.1,0-2.2,0-3.3,0
		c-0.2,0-0.2-0.1-0.2-0.3V7.3c0-0.2,0.1-0.3,0.3-0.3c0.3,0,0.5,0,0.8,0c0.2,0,0.3,0.1,0.3,0.3c0,0.7,0,1.3,0,2v2
		c0,0.1,0,0.1,0.1,0.1h2.1c0.2,0,0.3,0.1,0.3,0.3C7.7,11.9,7.7,12.1,7.6,12.4 M9.4,12.6c-0.2,0-0.5,0-0.8,0c-0.2,0-0.3-0.1-0.3-0.3
		c0-0.8,0-1.7,0-2.5c0-0.8,0-1.7,0-2.5c0-0.2,0.1-0.3,0.3-0.3c0.2,0,0.5,0,0.7,0c0.2,0,0.3,0.1,0.3,0.3c0,1.7,0,3.4,0,5
		C9.7,12.5,9.6,12.7,9.4,12.6 M15.4,12.4c0,0.2-0.1,0.3-0.3,0.3c-0.2,0-0.5,0-0.7,0c-0.1,0-0.2,0-0.3-0.2c-0.7-1-1.5-2-2.2-3
		c0,0,0-0.1-0.1-0.1c0,0,0,0,0,0v0.1c0,1,0,1.9,0,2.9c0,0.2-0.1,0.3-0.3,0.3c-0.3,0-0.5,0-0.8,0c-0.2,0-0.2-0.1-0.2-0.2
		c0,0,0-0.1,0-0.1c0-1.7,0-3.3,0-5c0,0,0-0.1,0-0.1c0-0.1,0.1-0.2,0.2-0.2c0.3,0,0.6,0,0.9,0c0.1,0,0.1,0.1,0.2,0.1
		c0.4,0.5,0.8,1.1,1.2,1.6c0.4,0.5,0.7,1,1.1,1.5c0,0,0,0,0.1,0.1c0-0.1,0-0.1,0-0.1c0-1,0-1.9,0-2.9c0,0,0-0.1,0-0.1
		c0-0.1,0.1-0.2,0.2-0.2c0.3,0,0.6,0,0.9,0c0.1,0,0.2,0.1,0.2,0.2c0,0,0,0,0,0.1V12.4z M19.9,7.3c0,0.2,0,0.5,0,0.7
		c0,0.2-0.1,0.3-0.3,0.3c-0.7,0-1.4,0-2.1,0c-0.1,0-0.1,0-0.1,0.1c0,0.2,0,0.5,0,0.7c0,0.1,0,0.1,0.1,0.1c0.7,0,1.4,0,2.1,0
		c0.2,0,0.3,0.1,0.3,0.3c0,0.2,0,0.5,0,0.7c0,0.2-0.1,0.3-0.3,0.3c-0.7,0-1.4,0-2.1,0c-0.1,0-0.1,0-0.1,0.1c0,0.2,0,0.5,0,0.7
		c0,0.1,0,0.1,0.1,0.1c0.7,0,1.4,0,2.1,0c0.2,0,0.3,0.1,0.3,0.3c0,0.2,0,0.5,0,0.8c0,0.2-0.1,0.2-0.2,0.2c-1.1,0-2.2,0-3.3,0
		c-0.2,0-0.2-0.1-0.2-0.3c0-0.8,0-1.7,0-2.5V7.3c0-0.2,0.1-0.3,0.3-0.3c1.1,0,2.1,0,3.2,0C19.9,7,19.9,7.2,19.9,7.3"/>
</g>
</svg>
