<?xml version="1.0" encoding="utf-8"?>
<!-- Generator: Adobe Illustrator 20.0.0, SVG Export Plug-In . SVG Version: 6.00 Build 0)  -->
<svg version="1.1" id="圖層_1" xmlns="http://www.w3.org/2000/svg" xmlns:xlink="http://www.w3.org/1999/xlink" x="0px" y="0px"
	 viewBox="0 0 983.7 408.7" style="enable-background:new 0 0 983.7 408.7;" xml:space="preserve">
<style type="text/css">
	.st0{fill:#FFFFFF;}
</style>
<g>
	<g>
		<g>
			<path class="st0" d="M480.9,177.5H300.8v-17.8h58.1v-32.1h-48.1V50.9h48.6V22.7h-53.6V4.9h170.8v17.8h-52.5v28.3h47.4v76.7h-47.6
				v32.1h57V177.5z M452.7,69.1h-47.3V22.7h-27.8v46.4h-48.1v40.6h47.9v50.1h27.7v-50.1h47.5V69.1z"/>
			<path class="st0" d="M722.6,65.5H589.5c-0.6,34.9-3.4,60.5-8.3,76.7c-4.9,16.2-11.5,29.4-19.7,39.7l-13.8-13.9
				c15-18.2,22.5-50.6,22.5-97.1V4h152.4V65.5z M703.7,47.6v-26H589.5v26H703.7z M729.6,138.9c-1.2,14.3-3.4,24.1-6.5,29.4
				c-3.1,5.2-8.4,8.6-15.9,9.9c-7.5,1.4-23.2,2.1-47.2,2.1c-25.6,0-40.8-1.3-45.6-3.8c-4.9-2.6-7.3-8.3-7.3-17.4V72.2h18.8v29.2h92
				l0.2,17.8h-92.2v38.3c0,1.5,0.9,2.7,2.8,3.5c1.8,0.8,12.2,1.2,31,1.2c26.4,0,41.5-0.8,45.1-2.5c3.6-1.6,5.7-10.5,6.3-26.7
				L729.6,138.9z"/>
			<path class="st0" d="M978.7,139.1c-0.6,26.5-8.7,39.7-24.2,39.7l-40.1-0.2c-4.9,0-9-1.7-12.4-5c-3.3-3.3-5-7.3-5-12v-43h-26.3
				c-6.3,34-28.5,54.8-66.5,62.4l-9.1-17.2c32.9-7.4,51.6-22.5,56-45.2h-36.8V58.4h62.9V38.1h-78.6V20.3h78.6V0.2h19v20.1h78.8v17.8
				h-78.8v20.3h63.5v60.2h-43.6v37.2c0,2.4,1,3.9,3.1,4.5c2.1,0.7,7.6,1,16.5,1c9.9,0,15.9-0.4,17.9-1.2c2.1-0.8,3.7-3.5,4.7-8
				c1.1-4.5,1.8-11.1,2.2-19.8L978.7,139.1z M940.7,101.2V75.8H833.8v25.4H940.7z"/>
		</g>
		<g>
			<g>
				<g>
					<path class="st0" d="M750.1,215.7c-6.8,0-12.4,5.9-12.4,13.1c0,7.2,5.5,13.1,12.4,13.1c6.7,0,12.2-5.9,12.2-13.1
						C762.3,221.6,756.8,215.7,750.1,215.7z"/>
					<g>
						<g>
							<g>
								<polygon class="st0" points="387.7,220.8 344.2,271.4 300.8,220.8 								"/>
								<path class="st0" d="M434.5,220.8L391,301.2H478L434.5,220.8z M434.5,287.4c-6.8,0-12.3-5.9-12.3-13.1
									c0-7.2,5.5-13.1,12.3-13.1c6.8,0,12.2,5.9,12.2,13.1C446.8,281.5,441.3,287.4,434.5,287.4z"/>
								<path class="st0" d="M880.8,286.2c-13.6,0-24.6-11.7-24.6-26.2c0-14.4,10.9-26.2,24.4-26.3c-7.7-11.1-20-18.5-33.9-18.5
									c-23.3,0-42.1,20.2-42.1,45c0,24.8,18.8,45,42.1,44.9c14.2,0,26.8-7.5,34.4-19C880.9,286.2,880.9,286.2,880.8,286.2z"/>
								<polygon class="st0" points="948.3,262.3 983.7,220.8 983.7,220.8 912.2,220.8 912.2,302.6 982.3,302.6 								"/>
							</g>
							<polygon class="st0" points="706.9,303.5 750.3,249.4 793.8,303.5 							"/>
						</g>
						<path class="st0" d="M356.5,291.7c0,7.2-5.5,13.1-12.3,13.1c-6.8,0-12.3-5.9-12.3-13.1c0-7.3,5.5-13.2,12.3-13.2
							C351,278.5,356.5,284.4,356.5,291.7z"/>
					</g>
				</g>
			</g>
			<path class="st0" d="M566.4,220.8c0.2,1,0.4,2.1,0.4,3.2c0,7.2-5.5,13.1-12.3,13.1c-6.8,0-12.3-5.9-12.3-13.1
				c0-1.1,0.2-2.2,0.4-3.2h-39.2v81.7h15.8c0,0,0,0,0.1-0.1c-0.2-0.8-0.3-1.6-0.3-2.5c0-7,5.7-12.7,12.6-12.7
				c7,0,12.6,5.6,12.6,12.7c0,0.9-0.1,1.7-0.2,2.6h36.1v-81.7H566.4z"/>
			<path class="st0" d="M683.9,220.8h-13.7c0.3,1,0.4,2.1,0.4,3.2c0,7.2-5.5,13.1-12.2,13.1c-6.8,0-12.3-5.9-12.3-13.1
				c0-1.1,0.2-2.2,0.4-3.2h-39.2v81.7H623c-0.2-0.9-0.3-1.7-0.3-2.6c0-7,5.7-12.7,12.6-12.7c7,0,12.6,5.6,12.6,12.7
				c0,0.7-0.1,1.5-0.2,2.2c0,0.1,0.1,0.3,0.1,0.4h36.2V220.8z"/>
		</g>
		<path class="st0" d="M258.3,105l-0.3-0.3V0h-7.2H0v258.3h258v-153L258.3,105z M208.8,39.1L184,14.4c21,0,38.8,0,49.5,0L208.8,39.1
			z M198.7,49.3L184,64l-49.6-49.7c10,0,19.9,0,29.4,0L198.7,49.3z M173.8,74.2l-16.6,16.6L80.9,14.4c10.7,0,21.8,0,33.3,0
			L173.8,74.2z M147.1,101L129,119L24.4,14.4c8.3,0,21.1,0,36.3,0L147.1,101z M118.8,129.2l-18,18L14.3,60.5c0-15.1,0-27.6,0-36
			L118.8,129.2z M73.1,174.9l-58.8-58.9c0-12.1,0-24,0-35.2l76.5,76.6L73.1,174.9z M63,185.1l-15.6,15.6l-33.1-33.1
			c0-10.1,0-20.7,0-31.4L63,185.1z M14.3,187.9l23,22.9l-23,23.1C14.3,223.7,14.3,207.3,14.3,187.9z M243.7,24.5
			c0,6.5,0,15.6,0,26.4L50.8,244c-10.8,0-19.9,0-26.4,0L243.7,24.5z M243.7,71.2c0,8.8,0,18.4,0,28.1L99.2,244c-9.8,0-19.3,0-28.1,0
			L243.7,71.2z M243.7,189.5L189.1,244c-7.8,0-16.1,0-24.7,0l79.3-79.3C243.7,173.3,243.7,181.6,243.7,189.5z M209.4,244l34.4-34.3
			c0,18.3,0,31.2,0,34.3C240.6,244,227.7,244,209.4,244z M243.7,144.4L144.2,244c-8.2,0-16.5,0-24.8,0l124.3-124.3
			C243.7,127.9,243.7,136.2,243.7,144.4z"/>
		<g>
			<path class="st0" d="M27.5,292.9l3.1-0.3c0.1,1.3,0.5,2.3,1,3.1c0.5,0.8,1.4,1.5,2.5,1.9c1.1,0.5,2.4,0.7,3.8,0.7
				c1.3,0,2.4-0.2,3.4-0.6c1-0.4,1.7-0.9,2.2-1.6c0.5-0.7,0.7-1.4,0.7-2.1c0-0.8-0.2-1.5-0.7-2.1c-0.5-0.6-1.2-1.1-2.3-1.5
				c-0.7-0.3-2.2-0.7-4.5-1.2c-2.3-0.5-3.9-1.1-4.8-1.6c-1.2-0.6-2.1-1.4-2.7-2.3c-0.6-0.9-0.9-2-0.9-3.1c0-1.3,0.4-2.4,1.1-3.5
				c0.7-1.1,1.8-1.9,3.1-2.5c1.4-0.6,2.9-0.9,4.6-0.9c1.8,0,3.5,0.3,4.9,0.9c1.4,0.6,2.5,1.5,3.3,2.6c0.8,1.2,1.2,2.5,1.2,3.9
				l-3.2,0.2c-0.2-1.6-0.8-2.8-1.7-3.6c-1-0.8-2.4-1.2-4.4-1.2c-2,0-3.5,0.4-4.4,1.1c-0.9,0.7-1.4,1.6-1.4,2.7c0,0.9,0.3,1.6,1,2.2
				c0.6,0.6,2.3,1.2,5,1.8c2.7,0.6,4.5,1.1,5.5,1.6c1.5,0.7,2.5,1.5,3.2,2.5c0.7,1,1,2.2,1,3.6c0,1.3-0.4,2.6-1.1,3.8
				c-0.8,1.2-1.9,2.1-3.3,2.7c-1.4,0.7-3,1-4.8,1c-2.3,0-4.2-0.3-5.7-1c-1.5-0.7-2.7-1.7-3.6-3C28,296.1,27.6,294.6,27.5,292.9z"/>
			<path class="st0" d="M55.1,279.4v-3.5h3.1v3.5H55.1z M55.1,301v-18.1h3.1V301H55.1z"/>
			<path class="st0" d="M66.4,301v-18.1h2.8v2.6c1.3-2,3.2-3,5.8-3c1.1,0,2.1,0.2,3,0.6c0.9,0.4,1.6,0.9,2.1,1.5
				c0.5,0.6,0.8,1.4,1,2.3c0.1,0.6,0.2,1.6,0.2,3V301H78v-11c0-1.2-0.1-2.2-0.4-2.8c-0.2-0.6-0.7-1.1-1.3-1.5
				c-0.6-0.4-1.3-0.6-2.1-0.6c-1.3,0-2.4,0.4-3.4,1.2c-1,0.8-1.4,2.4-1.4,4.7v9.9H66.4z"/>
			<path class="st0" d="M101.1,294.3l3,0.4c-0.3,2.1-1.2,3.7-2.5,4.9c-1.4,1.2-3,1.8-5,1.8c-2.5,0-4.5-0.8-6-2.4
				c-1.5-1.6-2.3-3.9-2.3-7c0-2,0.3-3.7,1-5.1c0.7-1.5,1.6-2.6,3-3.3c1.3-0.7,2.8-1.1,4.3-1.1c2,0,3.6,0.5,4.8,1.5
				c1.3,1,2.1,2.4,2.4,4.2l-3,0.5c-0.3-1.2-0.8-2.1-1.5-2.8c-0.7-0.6-1.6-0.9-2.6-0.9c-1.6,0-2.8,0.5-3.8,1.7
				c-1,1.1-1.4,2.9-1.4,5.3c0,2.4,0.5,4.2,1.4,5.3c0.9,1.1,2.1,1.7,3.7,1.7c1.2,0,2.2-0.4,3-1.1C100.4,297,100.9,295.8,101.1,294.3z
				"/>
			<path class="st0" d="M122.7,295.1l3.2,0.4c-0.5,1.9-1.4,3.3-2.8,4.3c-1.3,1-3.1,1.5-5.2,1.5c-2.7,0-4.8-0.8-6.3-2.5
				c-1.6-1.6-2.3-3.9-2.3-6.9c0-3,0.8-5.4,2.4-7.1c1.6-1.7,3.6-2.5,6.1-2.5c2.4,0,4.4,0.8,5.9,2.5c1.5,1.7,2.3,4,2.3,7
				c0,0.2,0,0.5,0,0.8h-13.5c0.1,2,0.7,3.5,1.7,4.6c1,1.1,2.3,1.6,3.8,1.6c1.1,0,2.1-0.3,2.9-0.9
				C121.6,297.4,122.2,296.4,122.7,295.1z M112.6,290.1h10.1c-0.1-1.5-0.5-2.7-1.1-3.4c-1-1.2-2.3-1.8-3.8-1.8
				c-1.4,0-2.6,0.5-3.6,1.4C113.3,287.3,112.7,288.6,112.6,290.1z"/>
			<path class="st0" d="M161.8,298v3h-16.6c0-0.7,0.1-1.5,0.4-2.1c0.4-1.1,1.1-2.2,2-3.3c0.9-1.1,2.3-2.4,4-3.8
				c2.7-2.2,4.6-4,5.5-5.3c0.9-1.3,1.4-2.5,1.4-3.7c0-1.2-0.4-2.2-1.3-3.1c-0.9-0.8-2-1.2-3.4-1.2c-1.5,0-2.7,0.4-3.6,1.3
				c-0.9,0.9-1.3,2.1-1.4,3.7l-3.2-0.3c0.2-2.4,1-4.2,2.4-5.4c1.4-1.2,3.3-1.9,5.7-1.9c2.4,0,4.3,0.7,5.7,2c1.4,1.3,2.1,3,2.1,5
				c0,1-0.2,2-0.6,2.9c-0.4,1-1.1,2-2,3.1c-1,1.1-2.5,2.5-4.7,4.4c-1.8,1.6-3,2.6-3.5,3.2c-0.5,0.6-1,1.1-1.3,1.7H161.8z"/>
			<path class="st0" d="M168.6,288.6c0-3,0.3-5.4,0.9-7.2c0.6-1.8,1.5-3.2,2.7-4.2c1.2-1,2.7-1.5,4.5-1.5c1.3,0,2.5,0.3,3.5,0.8
				c1,0.5,1.9,1.3,2.5,2.3c0.7,1,1.2,2.3,1.6,3.7c0.4,1.5,0.6,3.4,0.6,5.9c0,2.9-0.3,5.3-0.9,7.1c-0.6,1.8-1.5,3.2-2.7,4.2
				c-1.2,1-2.7,1.5-4.5,1.5c-2.4,0-4.3-0.9-5.7-2.6C169.4,296.7,168.6,293.3,168.6,288.6z M171.7,288.6c0,4.1,0.5,6.8,1.5,8.2
				c1,1.4,2.1,2,3.6,2c1.4,0,2.6-0.7,3.6-2c1-1.4,1.5-4.1,1.5-8.2c0-4.1-0.5-6.9-1.5-8.2c-1-1.4-2.2-2-3.6-2c-1.4,0-2.5,0.6-3.4,1.8
				C172.3,281.7,171.7,284.5,171.7,288.6z"/>
			<path class="st0" d="M191.5,288.6c0-3,0.3-5.4,0.9-7.2c0.6-1.8,1.5-3.2,2.7-4.2c1.2-1,2.7-1.5,4.5-1.5c1.4,0,2.5,0.3,3.5,0.8
				c1,0.5,1.8,1.3,2.5,2.3c0.7,1,1.2,2.3,1.6,3.7c0.4,1.5,0.6,3.4,0.6,5.9c0,2.9-0.3,5.3-0.9,7.1c-0.6,1.8-1.5,3.2-2.7,4.2
				c-1.2,1-2.7,1.5-4.6,1.5c-2.4,0-4.3-0.9-5.7-2.6C192.4,296.7,191.5,293.3,191.5,288.6z M194.7,288.6c0,4.1,0.5,6.8,1.4,8.2
				c1,1.4,2.2,2,3.6,2c1.4,0,2.6-0.7,3.6-2c1-1.4,1.4-4.1,1.4-8.2c0-4.1-0.5-6.9-1.4-8.2c-1-1.4-2.2-2-3.6-2c-1.4,0-2.5,0.6-3.4,1.8
				C195.2,281.7,194.7,284.5,194.7,288.6z"/>
			<path class="st0" d="M214.5,288.6c0-3,0.3-5.4,0.9-7.2c0.6-1.8,1.5-3.2,2.7-4.2c1.2-1,2.7-1.5,4.5-1.5c1.3,0,2.5,0.3,3.5,0.8
				c1,0.5,1.9,1.3,2.5,2.3c0.7,1,1.2,2.3,1.6,3.7c0.4,1.5,0.6,3.4,0.6,5.9c0,2.9-0.3,5.3-0.9,7.1c-0.6,1.8-1.5,3.2-2.7,4.2
				c-1.2,1-2.7,1.5-4.5,1.5c-2.4,0-4.3-0.9-5.7-2.6C215.3,296.7,214.5,293.3,214.5,288.6z M217.6,288.6c0,4.1,0.5,6.8,1.4,8.2
				c1,1.4,2.2,2,3.6,2s2.6-0.7,3.6-2c1-1.4,1.4-4.1,1.4-8.2c0-4.1-0.5-6.9-1.4-8.2c-1-1.4-2.2-2-3.6-2c-1.4,0-2.5,0.6-3.4,1.8
				C218.2,281.7,217.6,284.5,217.6,288.6z"/>
		</g>
	</g>
	<g>
		<path class="st0" d="M115,369.5c1.3,0,2.4,0.2,3.4,0.5c-2.4-3.8-5-8.5-7.6-14.2c-0.5-1.1-1.4-1.7-2.8-1.7H89.5
			c-2.1-0.2-3.2-1.4-3.2-3.4c0.1-2.1,1.2-3.2,3.2-3.2h21c3.2,0,5.6,1.5,7,4.6c4.3,8.7,8,14.9,11.2,18.8c0.9,0.7,1.4,1.8,1.4,3.2
			c0,1-0.3,1.9-0.9,2.5c-0.8,0.8-2,1.3-3.7,1.3c-1-0.2-2.3-1.3-3.8-3.2c-0.2-0.2-0.4-0.4-0.5-0.7c0.1,0.6,0.1,1.3,0.1,2.1
			c0,7.4-0.1,13.1-0.3,17.1c-0.5,5.8-1.8,9.6-3.9,11.4c-1.4,1.4-3.5,2.2-6.3,2.4c-5.4,0-9.2-0.8-11.4-2.1c-1-0.8-1.5-2.1-1.5-3.8
			c0-0.8,0.4-1.6,1-2.3c0.6-0.7,1.4-1,2.2-1c0.5,0,1.1,0.2,1.9,0.5c2.2,0.8,4.2,1.2,6.1,1.2c2.4,0,3.7-1.5,4.1-4.4
			c0.3-3.5,0.5-9.6,0.5-18c0-0.5-0.1-0.7-0.3-0.7H95.2c-0.4,5.6-1.5,10.2-3.2,14c-2.9,6.1-7.8,11.3-14.9,15.5
			c-1.7,1.1-3.4,1.7-4.9,1.7c-1,0-1.9-0.4-2.8-1.2c-0.6-0.6-0.9-1.3-1.1-2.3c0-0.9,0.4-1.7,1.1-2.4c7.3-4.3,12-8.2,14-11.8
			c2.1-3,3.4-7.5,4-13.5h-7c-1.7,0-2.6-1-2.7-3.1c-1.3,1.8-2.5,3.2-3.6,4.1c-0.8,0.6-1.7,0.9-2.6,0.9c-0.9,0-1.8-0.4-2.7-1.3
			c-0.7-0.8-1.1-1.7-1.1-2.8c0-0.7,0.4-1.3,1.1-1.9c2.9-3.4,5.2-6.6,7-9.5c1.8-2.5,3.2-5.3,4.3-8.3c0.6-0.9,1.5-1.3,2.6-1.3
			c0.7,0,1.4,0.2,2.1,0.7c1,0.6,1.5,1.6,1.5,3c0,0.5-0.1,1-0.3,1.7c-0.6,1.9-1.7,4.2-3.3,6.7c-0.9,1.6-1.8,3-2.6,4.3
			c0,0,0.1,0,0.2,0H115z"/>
		<path class="st0" d="M229.7,344.8c1.4,0,2.4,0.3,3,0.8c0.8,0.8,1.2,1.7,1.2,2.9v1.4h24c1,0,1.8,0.2,2.4,0.6
			c0.4,0.4,0.6,1.2,0.6,2.4c0,0.9-0.2,1.7-0.5,2.2c-0.5,0.7-1.4,1-2.4,1h-56.3c-0.9,0-1.7-0.2-2.2-0.7c-0.5-0.5-0.7-1.3-0.7-2.5
			c0-1,0.2-1.8,0.7-2.4c0.5-0.4,1.3-0.6,2.2-0.6h23.7v-1.4c0-1,0.4-2,1.2-2.9C227.1,345.1,228.1,344.8,229.7,344.8z M203.9,377.8
			h44.9c2.3,0,3.8,0.5,4.4,1.3c0.9,0.8,1.4,1.8,1.5,3.1c0,0.9-0.4,1.9-1.4,2.8c-1.2,1.3-2.8,2.5-4.8,3.6h9.1c1,0,1.8,0.2,2.4,0.7
			c0.4,0.4,0.6,1.2,0.6,2.3c0,1-0.2,1.8-0.5,2.2c-0.5,0.7-1.3,1-2.4,1h-20.3c0.2,1.2,0.4,2.4,0.4,3.6c0,3.4-0.8,5.8-2.4,7.3
			c-1.8,1.6-4.2,2.4-7.3,2.4c-4.4,0-7.8-0.6-10.4-1.7c-1.6-0.7-2.4-1.9-2.4-3.7c0-0.8,0.2-1.5,0.7-2c0.4-0.6,1.2-0.9,2.2-0.9
			c0.5,0,1.2,0.1,2,0.4c2.6,0.8,5.3,1.2,7.9,1.2c1.4,0,2.1-1.3,2.1-3.8c0-0.7-0.2-1.6-0.5-2.7h-28c-0.9,0-1.7-0.2-2.2-0.7
			c-0.5-0.4-0.7-1.2-0.7-2.5c0-1,0.2-1.8,0.7-2.3c0.5-0.4,1.3-0.7,2.2-0.7h25.8c0-0.9,0.4-1.7,1.3-2.3c0.8-0.4,1.7-0.7,2.8-0.7
			c1.5,0,2.6,0.7,3.2,1.9c0.1,0.1,0.2,0.3,0.2,0.4c2.6-0.8,4.7-1.6,6.2-2.3c1.3-0.5,2-0.9,2.2-1.3c0-0.4-0.2-0.5-0.5-0.5h-39
			c-1.2,0-1.9-0.3-2.3-0.8c-0.4-0.5-0.6-1.3-0.6-2.2c0-0.9,0.2-1.7,0.7-2.3C202.1,378,202.8,377.8,203.9,377.8z M208.7,359.3h41.6
			c2.9,0,4.4,1.4,4.4,4.2v6.5c0,2.8-1.5,4.2-4.4,4.2h-41.6c-2.9,0-4.4-1.4-4.4-4.2v-6.5C204.3,360.7,205.8,359.3,208.7,359.3z
			 M246.1,368.7c0.7,0,1.1-0.3,1.1-1V366c0-0.7-0.4-1-1.1-1h-33.1c-0.7,0-1,0.3-1,1v1.7c0,0.7,0.3,1,1,1H246.1z"/>
		<path class="st0" d="M462.9,357.1h16.5c1.1,0,1.9,0.3,2.5,0.7c0.5,0.5,0.8,1.3,0.8,2.5c0,1-0.2,1.8-0.6,2.2c-0.6,0.7-1.5,1-2.6,1
			h-16.5c-1,0-1.8-0.2-2.4-0.7c-0.5-0.5-0.8-1.3-0.8-2.5c0-1.1,0.3-1.9,0.8-2.5C461.1,357.4,461.9,357.1,462.9,357.1z M465.9,386.2
			h10.8c3.2,0,4.8,1.6,4.8,4.9v9.6c0,3.3-1.6,4.9-4.8,4.9h-10.8c-3.2,0-4.8-1.6-4.8-4.9v-9.6C461,387.8,462.7,386.2,465.9,386.2z
			 M464.1,347.5h14.2c0.9,0,1.6,0.2,2,0.6c0.4,0.3,0.7,1.1,0.7,2.4c0,0.9-0.1,1.6-0.4,2c-0.5,0.6-1.2,0.9-2.3,0.9h-14.2
			c-0.9,0-1.5-0.2-1.9-0.7c-0.5-0.4-0.7-1.2-0.7-2.3c0-1.2,0.2-2,0.7-2.4C462.5,347.7,463.1,347.5,464.1,347.5z M464.3,367.4h14.2
			c1,0,1.8,0.2,2.3,0.6c0.4,0.4,0.7,1.2,0.7,2.4c0,0.9-0.2,1.6-0.6,2c-0.5,0.6-1.3,0.9-2.4,0.9h-14.2c-1,0-1.8-0.2-2.3-0.7
			c-0.4-0.4-0.7-1.2-0.7-2.3c0-1,0.2-1.8,0.7-2.4C462.6,367.6,463.3,367.4,464.3,367.4z M464.3,376.8h14.2c1,0,1.8,0.2,2.3,0.6
			c0.4,0.4,0.7,1.2,0.7,2.4c0,0.9-0.2,1.6-0.6,2c-0.5,0.6-1.3,0.9-2.4,0.9h-14.2c-1,0-1.8-0.2-2.3-0.7c-0.4-0.4-0.7-1.1-0.7-2.2
			c0-1,0.2-1.8,0.7-2.4C462.6,377,463.3,376.8,464.3,376.8z M474,399.7c0.7,0,1-0.4,1-1.1v-5.4c0-0.8-0.3-1.1-1-1.1h-5.4
			c-0.7,0-1,0.4-1,1.1v5.4c0,0.7,0.3,1.1,1,1.1H474z M488,356.6h10.5c2.3,0,3.5,1.2,3.5,3.5v5.9c0,2.4-1.2,3.6-3.5,3.6h-1.6
			c0.3,0.1,0.6,0.3,0.7,0.5c0.6,0.5,0.9,1.3,0.9,2.5h8.6c0-1.2,0.2-2,0.8-2.5c0.2-0.2,0.4-0.3,0.7-0.5h-1.5c-2.2,0-3.3-1.1-3.3-3.3
			v-6.4c0-2.1,1.1-3.2,3.3-3.2h11c2.1,0,3.2,1.1,3.2,3.2v6.4c0,2.2-1.1,3.3-3.2,3.3h-5.8c0.3,0.1,0.6,0.3,0.8,0.5
			c0.5,0.5,0.8,1.3,0.8,2.5h5.6c0.9,0,1.5,0.2,1.8,0.5c0.4,0.3,0.6,0.9,0.6,1.8c0,0.8-0.1,1.3-0.4,1.7c-0.5,0.5-1.2,0.7-2,0.7h-5.6
			v2.5h5.1c0.8,0,1.5,0.2,1.9,0.5c0.3,0.3,0.5,1,0.5,1.9c0,0.7-0.1,1.3-0.4,1.7c-0.5,0.5-1.1,0.7-1.9,0.7h-5.1v2.4h6.9
			c0.9,0,1.5,0.2,2,0.5c0.3,0.3,0.5,0.9,0.5,1.8c0,0.8-0.2,1.5-0.5,1.9c-0.4,0.5-1.1,0.8-2,0.8H520c1,0.6,1.5,1.4,1.6,2.4
			c0,0.6-0.2,1.2-0.6,1.7c-0.3,0.7-1.3,1.8-3,3.3c-0.4,0.3-0.8,0.7-1.1,0.9c1.6,1.1,3.4,2.1,5.3,3c0.8,0.6,1.3,1.4,1.3,2.5
			c0,1-0.2,1.7-0.7,2.1c-0.5,0.5-1.3,0.7-2.4,0.7c-1.6-0.1-3.1-0.5-4.4-1.3c-3.8-2.1-7.2-5-10.2-8.8c-1.6-2.1-2.9-4.3-3.9-6.5h-3.2
			v8.7c1.4-0.3,2.9-0.6,4.3-0.9c0.6-0.1,1.2-0.1,1.6-0.1c0.6,0,1.2,0.2,1.6,0.6c0.6,0.6,1,1.4,1.1,2.4c0,1-0.4,1.8-1.1,2.4
			c-3.9,1.2-8.3,2.3-13.3,3.2c-0.5,0.2-1.3,0.3-2.3,0.3c-0.8,0-1.4-0.4-1.8-1.1c-0.4-0.7-0.6-1.5-0.6-2.4c0-0.9,0.4-1.6,1.3-2.2
			c1-0.3,2-0.5,2.9-0.7V398c-1.6,1.7-3.2,3-4.6,4c-0.8,0.5-1.4,0.9-2,0.9c-1.1,0-1.9-0.3-2.6-0.9c-0.4-0.6-0.7-1.2-0.7-2
			c0-1,0.4-1.8,1.3-2.5c2.9-1.9,5.3-3.7,7.3-5.4H485c-0.9,0-1.5-0.2-1.9-0.6c-0.4-0.4-0.5-1-0.5-2.1c0-0.8,0.2-1.4,0.5-1.8
			c0.4-0.4,1-0.5,1.9-0.5h6.7v-2.4h-4.5c-0.9,0-1.5-0.2-1.9-0.5c-0.4-0.4-0.6-1-0.6-1.9c0-0.8,0.2-1.5,0.6-1.9
			c0.4-0.3,1-0.5,1.9-0.5h4.5v-2.5h-5.4c-0.8,0-1.4-0.2-1.8-0.5c-0.4-0.3-0.6-0.9-0.6-1.9c0-0.8,0.2-1.4,0.6-1.8
			c0.4-0.4,1.1-0.5,1.8-0.5h5.4c0-1.2,0.2-2,0.7-2.5c0.2-0.2,0.5-0.3,0.8-0.5H488c-2.3,0-3.5-1.2-3.5-3.6v-5.9
			C484.5,357.7,485.7,356.6,488,356.6z M502.5,344.8c1.3,0,2.2,0.2,2.7,0.7c0.7,0.6,1,1.4,1,2.4v1.4h13.2c0.9,0,1.6,0.2,2.1,0.6
			c0.4,0.3,0.6,1,0.6,2c0,0.9-0.2,1.5-0.5,1.9c-0.5,0.5-1.3,0.8-2.2,0.8h-33.9c-0.9,0-1.6-0.2-2.1-0.6c-0.5-0.4-0.7-1-0.7-2.1
			c0-0.9,0.2-1.6,0.7-2c0.5-0.4,1.2-0.6,2.1-0.6h13.2V348c0-0.9,0.3-1.7,1-2.5C500.3,345,501.2,344.8,502.5,344.8z M495.8,365
			c0.5,0,0.8-0.3,0.8-0.8V362c0-0.5-0.3-0.8-0.8-0.8h-5.1c-0.5,0-0.8,0.3-0.8,0.8v2.2c0,0.5,0.3,0.8,0.8,0.8H495.8z M507.1,379.8
			v-2.5h-8.6v2.5H507.1z M507.1,387v-2.4h-8.6v2.4H507.1z M508.1,392.1c0.7,1,1.5,2.2,2.6,3.4c0.5,0.5,1.1,1.1,1.7,1.6
			c1.3-1.3,2.6-2.8,3.6-4.2c0.2-0.2,0.3-0.4,0.5-0.5c0.1-0.1,0.2-0.2,0.3-0.3H508.1z M515.1,365c0.6,0,0.9-0.3,0.9-0.8V362
			c0-0.5-0.3-0.8-0.9-0.8h-5c-0.6,0-0.9,0.3-0.9,0.8v2.2c0,0.5,0.3,0.8,0.9,0.8H515.1z"/>
		<path class="st0" d="M601.8,366.2c1.1,0,2,0.3,2.7,0.7c0.8,0.6,1.2,1.5,1.2,2.8c-0.1,2-0.5,4.2-1.2,6.7
			c-2.2,8.2-4.4,14.6-6.5,19.3c-0.6,1.4-1.8,2.1-3.6,2.1c-0.9-0.1-1.9-0.5-2.9-1.1c-0.6-0.7-0.9-1.6-0.9-2.6c0-0.4,0.2-1.3,0.6-2.7
			c3.1-7.4,5.6-15.1,7.5-23.1C599.3,367,600.3,366.2,601.8,366.2z M611.4,346.1c1.3,0,2.8,0.4,4.6,1.3c8.1,4.4,13.4,7.8,15.9,10.2
			c1.2,0.7,1.9,1.7,2,3c0,1.2-0.3,2.1-0.9,2.8c-0.7,0.9-1.6,1.4-2.9,1.6c-1.4,0-2.6-0.4-3.6-1.3c-5.2-3.9-10.7-7.6-16.5-11.1
			c-1.4-0.9-2.1-1.7-2.1-2.7c0-1.3,0.3-2.3,1-2.9C609.3,346.4,610.2,346.1,611.4,346.1z M615,362c2.7,0,4,1.2,4,3.4v32
			c0,1.1,0.6,1.6,1.9,1.7h12.6c1.1-0.1,1.7-1.1,1.9-3c0.4-1.7,0.5-4.3,0.5-8.1c0.3-1.7,1.3-2.5,3.2-2.5c1.3,0,2.2,0.3,2.8,0.8
			c0.9,0.7,1.4,1.6,1.4,2.7c0,4.1-0.5,8-1.5,11.5c-0.9,3.5-3.1,5.4-6.5,5.7h-18.9c-2-0.2-3.5-0.9-4.4-2.1c-0.8-1.1-1.2-2.9-1.2-5.4
			v-33.4C610.9,363.2,612.3,362,615,362z M639.9,363c1.1,0,2.1,0.6,3,1.7c3.8,5.6,7,11.1,9.8,16.5c0.7,1.2,1.1,2.4,1.3,3.6
			c0,1.2-0.4,2.1-1.2,2.6c-0.7,0.7-1.7,1-2.8,1.1c-1.7,0-2.8-0.7-3.5-2.1c-2.8-5.8-6.1-11.4-9.8-16.7c-0.9-1.3-1.3-2.4-1.3-3.1
			c0-1,0.5-1.9,1.5-2.6C637.9,363.3,638.9,363,639.9,363z"/>
		<path class="st0" d="M724.8,347.5h27.8c1,0,1.8,0.2,2.3,0.6c0.5,0.4,0.7,1.1,0.7,2.4c0,0.9-0.2,1.7-0.5,2.2c-0.6,0.7-1.4,1-2.4,1
			h-27.8c-0.9,0-1.7-0.2-2.2-0.7c-0.5-0.4-0.7-1.3-0.7-2.5c0-1,0.2-1.8,0.7-2.4C723.1,347.7,723.8,347.5,724.8,347.5z M727,373.9
			h23.3c3.1,0,4.6,1.9,4.6,5.6v22.6c0,1.9-0.4,3.1-1.2,3.7c-0.9,0.8-2.2,1.1-3.9,1.1c-2.2,0-4-0.3-5.2-0.9c-1-0.5-1.6-1.4-1.8-2.4
			c0.1-2.3,0.9-3.6,2.6-3.7c0.2,0,0.3,0,0.5,0.1c0.6,0.3,1.2,0.4,1.7,0.4c0.5,0,0.8-0.4,0.8-1v-18.9c0-0.7-0.2-1-0.5-1h-17.7
			c-0.7,0-1,0.3-1,1v24c0,1.1-0.3,1.9-0.9,2.4c-0.5,0.4-1.3,0.6-2.3,0.6c-1.2,0-2-0.3-2.5-0.8c-0.5-0.6-0.8-1.3-0.8-2.2v-25
			C722.6,375.7,724.1,373.9,727,373.9z M728.8,356.4h19.6c2.2,0,3.3,1.1,3.3,3.2v8.1c0,2.1-1.1,3.2-3.3,3.2h-19.6
			c-2.1,0-3.2-1.1-3.2-3.2v-8.1C725.6,357.4,726.7,356.4,728.8,356.4z M734.5,380.5c0.7,0.1,1.3,0.4,1.8,0.9c0.5,0.6,1.2,2.1,2,4.3
			c0.3,0.9,0.5,1.7,0.6,2.4h0.4c0-0.3,0.1-0.5,0.2-0.8c1.1-2.3,1.9-4.2,2.4-5.6c0.2-0.4,0.4-0.6,0.6-0.9c0.3-0.2,0.7-0.3,1.1-0.3
			c0.7,0,1.4,0.2,2,0.7c0.6,0.4,0.9,1,0.9,1.7c0,0.4-0.1,0.9-0.3,1.5c-0.5,1.3-1.1,2.5-1.6,3.6h0.3c0.9,0,1.5,0.2,1.8,0.5
			c0.4,0.3,0.6,1,0.6,2.2c0,0.9-0.1,1.5-0.3,1.9c-0.4,0.5-1.1,0.8-2.1,0.8h-3v10.1c0,1.1-0.2,1.8-0.7,2.2c-0.5,0.5-1.2,0.7-2.3,0.7
			c-0.9,0-1.7-0.2-2.2-0.7c-0.5-0.4-0.7-1.1-0.7-2.2v-10.1h-3c-0.7,0-1.2-0.2-1.7-0.6c-0.5-0.4-0.7-1.1-0.7-2.1
			c0-1.1,0.2-1.8,0.7-2.2c0.3-0.3,0.9-0.5,1.7-0.5h1.1c-0.6-1.3-1.4-2.8-2.2-4.6c-0.1-0.2-0.2-0.5-0.2-0.8c0-0.2,0.1-0.5,0.2-0.9
			c0.2-0.4,0.6-0.7,1.1-1C733.6,380.6,734,380.5,734.5,380.5z M743.9,365.4c0.7,0,1-0.3,1-1v-1.7c0-0.7-0.3-1-1-1h-10.6
			c-0.7,0-1,0.3-1,1v1.7c0,0.7,0.3,1,1,1H743.9z M761.7,354.7h3.7v-5.9c0-1.2,0.3-2.1,0.9-2.6c0.4-0.6,1.3-0.9,2.7-0.9
			c1.3,0,2.2,0.3,2.7,0.8c0.5,0.6,0.8,1.5,0.8,2.7v5.9h4c3.6,0,5.4,1.8,5.4,5.4v21c0,3.5-1.8,5.3-5.4,5.3h-4v9.7
			c1.3-0.3,2.5-0.6,3.6-0.9c-0.2-0.7-0.4-1.3-0.5-2c-0.3-1-0.4-1.7-0.4-2.2c0-0.7,0.4-1.4,1.1-2c0.7-0.4,1.5-0.7,2.4-0.7
			c0.8,0,1.5,0.3,2.2,1c1.3,4.1,2.5,8.1,3.5,12c0.3,0.9,0.5,1.8,0.5,2.6c0,1-0.3,1.8-1,2.2c-0.6,0.6-1.5,1-2.5,1
			c-1.3,0-2.2-0.6-2.7-1.9c-0.3-1.4-0.6-2.7-0.9-4c-2.9,1-5.9,1.9-8.9,2.6c-4.5,1.1-7.6,1.7-9.3,1.7c-2.4,0-3.6-1.4-3.7-4.3
			c0.2-1.7,1.3-2.6,3.4-3c2.2-0.3,4.3-0.5,6.2-0.8v-11.1h-3.7c-3.6,0-5.4-1.8-5.4-5.3v-21C756.2,356.5,758,354.7,761.7,354.7z
			 M765.9,380v-18.7h-1.9c-1.1,0-1.7,0.5-1.7,1.6v15.7c0,1,0.6,1.5,1.7,1.5H765.9z M773.9,380c1.1,0,1.7-0.5,1.7-1.5v-15.7
			c0-1-0.6-1.6-1.7-1.6h-1.8V380H773.9z"/>
		<path class="st0" d="M869.5,345.3c1.3,0,2.3,0.2,3,0.6c0.9,0.5,1.4,1.4,1.4,2.6c-0.1,1-0.4,2-0.7,3c-0.8,2.7-1.9,5.6-3.4,8.7v44.1
			c0,1.2-0.3,2.1-0.9,2.7c-0.5,0.6-1.3,0.8-2.5,0.8c-1.2,0-2-0.3-2.5-0.8c-0.6-0.5-0.9-1.4-0.9-2.7v-31.1c-1.4,2.2-2.7,4.1-3.8,5.6
			c-0.7,0.9-1.7,1.3-2.9,1.3c-1.1,0-2-0.3-2.8-0.9c-0.6-0.5-0.9-1.2-0.9-2.2c0.1-0.7,0.4-1.5,1-2.4c6.2-8.5,10.7-17.5,13.8-27
			C867.6,346.2,868.4,345.5,869.5,345.3z M908.8,354.7c0.8,0,1.6,0.3,2.3,0.8c0.8,0.8,1.2,1.7,1.2,2.7c-0.1,1-0.5,2-1.3,3
			c-2.6,3-6.8,6.2-12.5,9.3c-3.5,2-6.9,3.7-10.1,5v23.1c0,1,0.5,1.5,1.5,1.5H902c1.4-0.2,2.3-1.2,2.6-2.8c0.4-1.6,0.6-3.3,0.5-5.1
			c0.1-1.7,0.1-4.1,0.1-7.3c0.3-1.6,1.4-2.4,3.5-2.4c1,0,1.9,0.2,2.5,0.7c0.7,0.3,1.1,1.1,1.3,2.5c0,8.2-0.6,13.7-1.7,16.6
			c-1.1,2.9-3.5,4.5-7.2,4.7H887c-2,0-3.4-0.7-4.4-1.9c-0.8-0.9-1.2-2.5-1.2-4.9v-51.6c0-1.1,0.4-1.9,1.1-2.4
			c0.5-0.4,1.3-0.6,2.4-0.6c1.3,0,2.2,0.2,2.6,0.7c0.6,0.5,0.9,1.3,0.9,2.3v19.8c5.6-2.6,11.4-6.5,17.1-11.8
			C906.7,355.3,907.8,354.7,908.8,354.7z"/>
		<path class="st0" d="M336.2,384.7c-2.7-2.7-6-4-9.6-4c-3.8,0-7.2,1.3-10,4c-2.7,2.7-4.2,6-4.1,9.7c0,3.7,1.4,7,4.1,9.8
			c2.8,2.7,6.2,4.2,10,4.1h0c3.6,0,6.8-1.4,9.5-4.1c2.6-2.8,3.9-6.1,3.9-9.8C340.1,390.7,338.8,387.4,336.2,384.7z M326.6,403.1
			L326.6,403.1c-2.5,0-4.5-0.9-6.4-2.7c-1.6-1.8-2.4-3.7-2.4-6.1s0.8-4.3,2.4-6.1c1.8-1.6,3.9-2.4,6.4-2.4c2.2,0,4.1,0.8,5.8,2.4
			c1.7,1.8,2.5,3.7,2.5,6c0,2.3-0.8,4.3-2.5,6.1C330.7,402.3,328.8,403.1,326.6,403.1z"/>
	</g>
</g>
</svg>
