<?xml version="1.0" encoding="utf-8"?>
<!-- Generator: Adobe Illustrator 20.0.0, SVG Export Plug-In . SVG Version: 6.00 Build 0)  -->
<svg version="1.1" xmlns="http://www.w3.org/2000/svg" xmlns:xlink="http://www.w3.org/1999/xlink" x="0px" y="0px"
	 viewBox="0 0 39.7 288" style="enable-background:new 0 0 39.7 288;" xml:space="preserve">
<style type="text/css">
	.st0{fill:#C41B1E;}
	.st1{fill:#FFFFFF;}
</style>
<g id="圖層_2">
	<g>
		<path class="st0" d="M39.5,2.3l0-2.3C39.6,0.2,39.8,0.9,39.5,2.3z"/>
		<path class="st0" d="M39.5,0.1C39.5,0,39.5,0,39.5,0.1L39.5,0.1z"/>
		<path class="st1" d="M0.8,81.2c0-8.3,8.3-37.8,24.9-57.2C36.2,11.7,39,5.3,39.5,2.3l0.1,138h0l0,3.7l0,3.7h0l-0.1,138
			c-0.6-3-3.3-9.3-13.9-21.7C9.1,244.6,0.8,215,0.8,206.7c0-4.6-1-35.4-0.7-62.8C-0.2,116.6,0.8,85.9,0.8,81.2z"/>
		<path class="st0" d="M39.5,287.9l0-2.3C39.8,287.1,39.6,287.7,39.5,287.9z"/>
		<path class="st0" d="M39.5,288C39.5,288,39.5,287.9,39.5,288L39.5,288z"/>
	</g>
	<g>
		<path class="st0" d="M19.8,97.9c6.8,0,10.8,4.4,10.8,9.6c0,2.6-1.3,4.7-2.7,6.1l-2.6-2.2c1-1,1.7-2.2,1.7-3.8
			c0-3.1-2.7-5.5-7.1-5.5c-4.5,0-7.2,2.1-7.2,5.4c0,1.8,0.8,3.2,2,4.3l-2.6,2.2c-2-1.7-3.1-3.9-3.1-6.6
			C9.1,102.1,12.8,97.9,19.8,97.9z"/>
		<path class="st0" d="M30.2,118.7v4.1H13v8.4H9.5v-12.5H30.2z"/>
		<path class="st0" d="M19.9,134.2c6.7,0,10.7,3.8,10.7,9.3c0,5.5-3.9,9.3-10.7,9.3c-6.7,0-10.8-3.8-10.8-9.3
			C9.1,138,13.2,134.2,19.9,134.2z M19.9,148.5c4.5,0,7.1-2,7.1-5c0-3.1-2.7-5-7.1-5c-4.4,0-7.3,2-7.3,5
			C12.7,146.5,15.5,148.5,19.9,148.5z"/>
		<path class="st0" d="M12.1,156.8l2.9,2.4c-1.4,1.5-2.3,3.4-2.3,5.3c0,2.2,0.9,3.3,2.4,3.3c1.5,0,2-1.3,2.8-3.1l1.2-2.8
			c0.9-2.1,2.5-4.2,5.6-4.2c3.4,0,6,3,6,7.2c0,2.4-1,4.8-2.7,6.5l-2.6-2.1c1.1-1.3,1.7-2.7,1.7-4.4c0-1.8-0.8-3-2.2-3
			c-1.5,0-2,1.5-2.7,3.2l-1.1,2.7c-1,2.5-2.6,4.2-5.6,4.2c-3.4,0-6.3-2.8-6.3-7.6C9.1,161.6,10.2,158.8,12.1,156.8z"/>
		<path class="st0" d="M30.2,177.1v12.7h-3.4v-8.6H22v7.3h-3.5v-7.3H13v8.9H9.5v-13H30.2z"/>
	</g>
</g>
<g id="圖層_3">
</g>
</svg>
