<?xml version="1.0" encoding="utf-8"?>
<!-- Generator: Adobe Illustrator 20.0.0, SVG Export Plug-In . SVG Version: 6.00 Build 0)  -->
<svg version="1.1" xmlns="http://www.w3.org/2000/svg" xmlns:xlink="http://www.w3.org/1999/xlink" x="0px" y="0px"
	 viewBox="0 0 39.7 288" style="enable-background:new 0 0 39.7 288;" xml:space="preserve">
<style type="text/css">
	.st0{fill:#C41B1E;}
	.st1{fill:#FFFFFF;}
</style>
<g id="圖層_2">
	<g>
		<path class="st0" d="M0.1,2.3l0-2.3C0.1,0.2-0.1,0.9,0.1,2.3z"/>
		<path class="st0" d="M0.1,0.1C0.2,0,0.2,0,0.1,0.1L0.1,0.1z"/>
		<path class="st0" d="M38.9,81.2c0-8.3-8.3-37.8-24.9-57.2C3.5,11.7,0.7,5.3,0.1,2.3l-0.1,138h0l0,3.7l0,3.7h0l0.1,138
			c0.6-3,3.3-9.3,13.9-21.7c16.6-19.4,24.9-48.9,24.9-57.2c0-4.6,1-35.4,0.7-62.8C39.9,116.6,38.9,85.9,38.9,81.2z"/>
		<path class="st0" d="M0.1,287.9l0-2.3C-0.1,287.1,0.1,287.7,0.1,287.9z"/>
		<path class="st0" d="M0.2,288C0.2,288,0.2,287.9,0.2,288L0.2,288z"/>
	</g>
	<g>
		<path class="st1" d="M30.4,102.8v4.6l-9.7,3.5c-1.3,0.4-2.7,0.8-4,1.3v0.1c1.3,0.4,2.7,0.8,4,1.3l9.7,3.4v4.6H9.7v-3.8h8.7
			c2,0,4.8,0.3,6.8,0.5v-0.1l-4.9-1.7l-8.7-3.2V111l8.7-3.2l4.9-1.7V106c-2,0.2-4.8,0.5-6.8,0.5H9.7v-3.7H30.4z"/>
		<path class="st1" d="M30.4,128.2v12.7H27v-8.6h-4.8v7.3h-3.5v-7.3h-5.5v8.9H9.7v-13H30.4z"/>
		<path class="st1" d="M30.4,146.8v4.2l-11,6l-4.5,2.1v0.1c2.2-0.2,4.9-0.5,7.3-0.5h8.3v3.9H9.7v-4.2l11.1-6l4.5-2.1v-0.1
			c-2.2,0.2-4.8,0.5-7.2,0.5H9.7v-3.9H30.4z"/>
		<path class="st1" d="M19,169h11.4v4.1H18.6c-4.3,0-5.8,1.5-5.8,3.9c0,2.5,1.5,4,5.8,4h11.8v4H19c-6.9,0-9.7-2.9-9.7-8
			C9.3,172.1,12.1,169,19,169z"/>
	</g>
</g>
<g id="圖層_3">
</g>
</svg>
