<?xml version="1.0" encoding="utf-8"?>
<!-- Generator: Adobe Illustrator 20.0.0, SVG Export Plug-In . SVG Version: 6.00 Build 0)  -->
<svg version="1.1" id="圖層_1" xmlns="http://www.w3.org/2000/svg" xmlns:xlink="http://www.w3.org/1999/xlink" x="0px" y="0px"
	 viewBox="0 0 86.3 85.8" style="enable-background:new 0 0 86.3 85.8;" xml:space="preserve">
<style type="text/css">
	.st0{fill:#D2151A;}
	.st1{fill:#FFFFFF;}
</style>
<g>
	<g>
		<path class="st0" d="M82.7,62.2C94.3,23.6,41.3-5.9,18.9,25.9C-9.2,65.8,68.3,110,82.7,62.2z"/>
	</g>
	<g>
		<path class="st1" d="M43.2,85C19.9,85,1,66.1,1,42.9S19.9,0.7,43.2,0.7s42.2,18.9,42.2,42.2S66.4,85,43.2,85z M43.2,5.7
			C22.7,5.7,6,22.4,6,42.9C6,63.4,22.7,80,43.2,80c20.5,0,37.2-16.7,37.2-37.2C80.3,22.4,63.7,5.7,43.2,5.7z"/>
	</g>
	<polygon class="st1" points="36.1,56.7 36.1,29.1 58,42.9 	"/>
</g>
</svg>
