<?xml version="1.0" encoding="utf-8"?>
<!-- Generator: Adobe Illustrator 20.0.0, SVG Export Plug-In . SVG Version: 6.00 Build 0)  -->
<svg version="1.1" id="圖層_1" xmlns="http://www.w3.org/2000/svg" xmlns:xlink="http://www.w3.org/1999/xlink" x="0px" y="0px"
	 viewBox="0 0 14.6 23.8" style="enable-background:new 0 0 14.6 23.8;" xml:space="preserve">
<style type="text/css">
	.st0{clip-path:url(#SVGID_2_);}
</style>
<g>
	<defs>
		<rect id="SVGID_1_" y="0" width="14.6" height="23.8"/>
	</defs>
	<clipPath id="SVGID_2_">
		<use xlink:href="#SVGID_1_"  style="overflow:visible;"/>
	</clipPath>
	<path class="st0" d="M8.7,0c0.9,2.5-0.1,5.1,0.4,8c1.6-1.9,3-3.6,4.5-5.3c0.8,0.9,0.4,1.5-0.2,2.1c-1.3,1.5-2.5,3-4.1,4.8
		c1.6-0.1,2.6-0.3,3.7-0.2c0.5,0,1,0.4,1.6,0.6c-0.5,0.2-0.9,0.6-1.4,0.7c-1.3,0.2-2.6,0.3-4.1,0.4c0.9,2.3,3.2,3.5,3.7,6.1
		c-2.4-0.3-2.8-2.4-4.2-3.8C8.1,17,9.1,20.5,8.1,23.8c-1.6-3.5-0.3-7.3-1-11.2c-1.6,2-3,3.7-4.4,5.5l-0.5-0.3C2.8,15.5,5,14,6,11.6
		c-1.6,0.1-3.1,0.2-4.6,0.2c-0.4,0-0.9-0.3-1.3-0.5c0.5-0.2,0.9-0.6,1.4-0.7c1.4-0.2,2.8-0.3,4.5-0.4c-0.8-1.4-1.4-2.5-2-3.6
		C3.6,6.2,3.4,5.7,3.3,5.3C3.2,5.1,3.4,4.7,3.6,4.6c0.2-0.1,0.6,0.1,0.7,0.2c0.6,0.8,1.1,1.7,1.6,2.5C6.3,8,6.7,8.6,7.5,9.2
		C7.7,6.1,7.8,3.1,8,0C8.2,0,8.5,0,8.7,0"/>
</g>
</svg>
