<?xml version="1.0" encoding="utf-8"?>
<!-- Generator: Adobe Illustrator 20.0.0, SVG Export Plug-In . SVG Version: 6.00 Build 0)  -->
<svg version="1.1" id="圖層_1" xmlns="http://www.w3.org/2000/svg" xmlns:xlink="http://www.w3.org/1999/xlink" x="0px" y="0px"
	 viewBox="0 0 17.6 17.3" style="enable-background:new 0 0 17.6 17.3;" xml:space="preserve">
<style type="text/css">
	.st0{clip-path:url(#SVGID_2_);}
</style>
<g>
	<g>
		<defs>
			<rect id="SVGID_1_" y="0" width="17.6" height="17.3"/>
		</defs>
		<clipPath id="SVGID_2_">
			<use xlink:href="#SVGID_1_"  style="overflow:visible;"/>
		</clipPath>
		<path class="st0" d="M9.7,8.6c2.9-0.4,5.4-0.8,7.8-1.1c0,0.2,0.1,0.4,0.1,0.6c-2.3,1.7-5.4,0.7-8,2.1c1.6,1.9,3.6,3.3,4.2,5.7
			c-0.2,0.1-0.3,0.3-0.5,0.4c-1-1.1-2.1-2.2-3.2-3.3c-1.1,1.4,1.3,3.1-0.9,4.5c-0.4-2.3-0.8-4.4-1.2-6.9c-2.3,2.2-3.7,4.7-5.8,6.5
			c-0.2-0.2-0.4-0.3-0.6-0.5C3.1,14.7,4.5,12.9,6,11c-0.1-0.1-0.1-0.2-0.2-0.3c-1.4,0.3-2.9,0.6-4.3,0.8C1,11.3,0.5,11,0,10.8
			c0.4-0.3,0.8-0.7,1.3-0.8c1.6-0.3,3.2-0.6,5.1-0.9C5.5,8.2,5,7.6,4.4,6.9C3.9,6.3,3.4,5.8,3,5.1c-0.2-0.3-0.1-0.7-0.1-1
			c0.4,0.1,0.9,0,1.1,0.3c1.3,1.2,2.5,2.5,4,3.9C8.4,6,7.5,3.7,8.8,1.8c0.2,0,0.3,0,0.5,0v4.3c0.2,0.1,0.3,0.1,0.5,0.2
			c1.8-2.1,3.6-4.1,5.5-6.3C16,1.1,15.5,1.7,15,2.3c-1.4,1.6-2.8,3.2-4.1,4.8C10.5,7.5,10.2,7.9,9.7,8.6"/>
	</g>
</g>
</svg>
