<?xml version="1.0" encoding="utf-8"?>
<!-- Generator: Adobe Illustrator 20.0.0, SVG Export Plug-In . SVG Version: 6.00 Build 0)  -->
<svg version="1.1" id="圖層_1" xmlns="http://www.w3.org/2000/svg" xmlns:xlink="http://www.w3.org/1999/xlink" x="0px" y="0px"
	 viewBox="0 0 18.3 19.3" style="enable-background:new 0 0 18.3 19.3;" xml:space="preserve">
<style type="text/css">
	.st0{clip-path:url(#SVGID_2_);}
</style>
<g>
	<g>
		<defs>
			<rect id="SVGID_1_" width="18.3" height="19.3"/>
		</defs>
		<clipPath id="SVGID_2_">
			<use xlink:href="#SVGID_1_"  style="overflow:visible;"/>
		</clipPath>
		<path class="st0" d="M18.2,10.8c-1.6,0.3-3.3,0.6-4.9,0.8c-1.6,0.3-1.6,0.3-2.1,1.8c-0.5,1.7-1.1,3.4-1.8,5.1
			C9.2,18.8,9,19,8.8,19.2c-0.1,0-0.2,0-0.3,0c-0.2-0.8-0.5-1.5-0.5-2.3c-0.1-1.1-0.2-2.3-0.3-3.5c-0.1-1.7-0.7-2.3-2.4-2.6
			c-1.4-0.2-2.8-0.4-4.2-0.7C0.6,10,0.3,9.8-0.1,9.6c0-0.1,0-0.2,0-0.3C0.3,9.2,0.7,9,1.1,8.9c1.7-0.3,3.4-0.5,5.2-0.7
			C7,8.2,7.4,7.8,7.6,7.2C8.4,5,9.3,2.9,10.2,0.8c0.1-0.3,0.3-0.6,0.5-0.9c0.1,0,0.2,0,0.3,0c0.1,0.5,0.4,1,0.4,1.5
			c0.1,1.9,0.2,3.8,0.3,5.6c0.1,1.2,0.4,1.5,1.5,1.7c1.2,0.2,2.5,0.5,3.7,0.7c0.5,0.1,0.9,0.5,1.3,0.7L18.2,10.8z M9,17.1
			c0.1,0,0.1,0,0.3,0.1c0.4-1.7,0.9-3.3,1.3-5c0.1-0.5,0.2-0.8,0.9-0.8c1.6-0.1,3.1-0.4,4.8-0.7c0-0.1,0-0.2,0-0.3
			c-1-0.3-2-0.5-3.1-0.9c-1.9-0.6-1.9-0.6-2-2.7c-0.1-1.4-0.3-2.7-0.5-4.2c-0.1,0-0.2,0-0.3,0C10.3,3,10,3.3,9.9,3.6
			c-0.5,1.3-1,2.6-1.5,4C7.7,9.2,7.4,9.3,5.7,9.1C4.7,9,3.6,9,2.7,9.7C3.8,10,4.9,10.1,6,10.3c1.7,0.1,1.8,0.2,2,1.6
			C8.2,13.5,8.6,15.3,9,17.1"/>
	</g>
</g>
</svg>
