<?xml version="1.0" encoding="utf-8"?>
<!-- Generator: Adobe Illustrator 20.0.0, SVG Export Plug-In . SVG Version: 6.00 Build 0)  -->
<svg version="1.1" id="圖層_1" xmlns="http://www.w3.org/2000/svg" xmlns:xlink="http://www.w3.org/1999/xlink" x="0px" y="0px"
	 viewBox="0 0 104.2 31" style="enable-background:new 0 0 104.2 31;" xml:space="preserve">
<style type="text/css">
	.st0{fill:#040000;}
</style>
<g>
	<path class="st0" d="M9.1,27.3v-9.5L1.8,6.4C1.1,5.4,0.7,4.6,0.4,4S0,3,0,2.6c0-0.7,0.3-1.3,0.8-1.8C1.3,0.3,2,0,2.8,0
		c0.8,0,1.5,0.2,1.9,0.7s1.1,1.4,1.9,2.8l5.6,9.1l5.7-9.1c0.3-0.6,0.6-1,0.9-1.4C19,1.7,19.2,1.4,19.5,1c0.3-0.3,0.6-0.6,0.9-0.8
		C20.8,0.1,21.2,0,21.7,0c0.8,0,1.4,0.2,1.9,0.7c0.5,0.5,0.8,1.1,0.8,1.7c0,0.5-0.1,1.1-0.4,1.6c-0.3,0.5-0.7,1.3-1.3,2.2l-7.5,11.5
		v9.5c0,1.2-0.3,2.2-0.9,2.8S13,31,12.1,31c-0.9,0-1.6-0.3-2.2-0.9C9.3,29.5,9.1,28.5,9.1,27.3z"/>
	<path class="st0" d="M58.4,5.5h-6.6v21.8c0,1.3-0.3,2.2-0.8,2.8c-0.6,0.6-1.3,0.9-2.2,0.9c-0.9,0-1.6-0.3-2.2-0.9
		c-0.6-0.6-0.8-1.5-0.8-2.8V5.5h-6.6c-1,0-1.8-0.2-2.3-0.7c-0.5-0.5-0.8-1.1-0.8-1.8c0-0.8,0.3-1.4,0.8-1.8c0.5-0.4,1.3-0.7,2.3-0.7
		h19.3c1,0,1.8,0.2,2.3,0.7c0.5,0.5,0.8,1.1,0.8,1.8c0,0.7-0.3,1.4-0.8,1.8C60.3,5.3,59.5,5.5,58.4,5.5z"/>
	<path class="st0" d="M85.7,25.9L80.9,6.9v20.7c0,1.1-0.3,2-0.8,2.6c-0.5,0.6-1.2,0.9-2,0.9c-0.8,0-1.5-0.3-2-0.8
		c-0.5-0.6-0.8-1.4-0.8-2.6V3.8c0-1.3,0.3-2.2,1-2.6C77,0.7,78,0.5,79.1,0.5H81c1.1,0,2,0.1,2.5,0.3C84,1,84.3,1.4,84.6,1.9
		c0.2,0.5,0.5,1.4,0.8,2.6l4.4,16.4l4.4-16.4c0.3-1.2,0.6-2.1,0.8-2.6s0.6-0.9,1.1-1.1c0.5-0.2,1.3-0.3,2.5-0.3h1.9
		c1.2,0,2.1,0.2,2.8,0.7c0.7,0.5,1,1.3,1,2.6v23.7c0,1.1-0.3,2-0.8,2.6c-0.5,0.6-1.2,0.9-2.1,0.9c-0.8,0-1.5-0.3-2-0.9
		c-0.5-0.6-0.8-1.4-0.8-2.6V6.9l-4.8,19.1c-0.3,1.2-0.6,2.1-0.8,2.7c-0.2,0.6-0.6,1.1-1.1,1.6c-0.5,0.5-1.3,0.7-2.2,0.7
		c-0.7,0-1.3-0.2-1.8-0.5c-0.5-0.3-0.9-0.7-1.1-1.2c-0.3-0.5-0.5-1-0.6-1.6C86,27.2,85.9,26.6,85.7,25.9z"/>
</g>
</svg>
